<svg width="41" height="41" fill="none" xmlns="http://www.w3.org/2000/svg">
    <path fill-rule="evenodd" clip-rule="evenodd" d="M.043 19.17C.705 8.828 9.038.57 19.414.029h2.172C32.403.593 41 9.543 41 20.5 41 31.822 31.822 41 20.5 41 9.625 41 .728 32.532.043 21.83v-2.66z" fill="#fff"/>
    <path fill-rule="evenodd" clip-rule="evenodd" d="m20.647 22.025.308.063-.092.302.04.022.457-.539-.022-.038-.691.144v.046zm.05-.85.04.023.4-.432-.022-.04-.58.096-.002.047.25.062-.085.243zm-1.321 3.384h-.471l-.01.045.184.08-.097.175.035.03.373-.287-.014-.043zm1-.787-.589.019-.008.046.24.094-.117.23.036.03.453-.377-.015-.042zm.476-.518.325.046-.077.32.042.02.443-.588-.026-.037-.71.192.003.047zm-1.562 2.343-.01.045.185.081-.097.175.035.03.372-.288-.014-.043h-.47zm2.936.04.318-.349-.022-.038-.464.08-.001.045.194.048-.064.19.04.025zm.233-2.975.54-.745-.025-.038-.884.257.004.047.415.05-.092.409.042.02zm-1.704 2.111-.588-.001-.01.045.236.102-.125.227.036.03.466-.36-.015-.043zm1.083-4.033.403.108-.147.392.04.025.637-.663-.02-.041-.911.133-.002.046zm-.274 4.071.477-.561-.023-.039-.72.15v.047l.321.066-.095.315.04.022zm1.476-5.673.035.03.372-.288-.015-.043h-.47l-.01.046.185.08-.097.175zm-1.282.789.034.03.581-.451-.014-.042-.736-.001-.009.046.302.13-.158.288zm2.417 3.646-.002.046.25.063-.084.244.04.023.399-.432-.022-.039-.58.095zm1.756-4.145.036.03.371-.29-.014-.04h-.47l-.01.044.185.08-.098.176zm-4.698 6.26h-.472l-.01.044.185.08-.097.176.035.03.373-.288-.014-.043zm3.378-6.477.035.03.464-.361-.014-.043h-.588l-.01.046.237.102-.124.226zm-.903 3.133.323.061-.091.317.04.02.469-.567-.024-.039-.718.162.001.046zm.452-4.193 2.395.004s.756.284 1.75.684c.455.184.698.596.66 1.065 0 0 .392.393.61.641.26.301.29.718.085.991a.944.944 0 0 1-.613.352l-.024-.046c.158-.157.093-.411-.046-.613-.146-.21-.276-.248-.425-.157a2.834 2.834 0 0 0-.152.103l.374.595-.015.042c-.295.083-.704.016-.896-.226H26.02l-.003.049 1.027.185.03.072-3.52 4.14.033.032 1.199-1.072.002.935-.11.282.112.656-.04.279 1.097.936h.001l.03.014a.862.862 0 0 1 .095.052c.019.011.037.025.057.039.021.012.039.03.06.045.018.017.038.033.056.053.02.017.036.038.055.058.015.022.033.041.047.064.016.021.028.045.042.066.01.023.025.044.033.066l.028.063c.009.02.014.04.02.055a.302.302 0 0 1 .015.047l.013.043.048.002.017-.042a.233.233 0 0 0 .013-.052.295.295 0 0 0 .007-.073v-.043l-.005-.043c-.003-.03-.014-.062-.022-.095-.013-.03-.025-.065-.044-.095-.016-.032-.04-.06-.062-.09-.024-.026-.048-.053-.077-.074-.026-.025-.057-.042-.086-.06a.669.669 0 0 0-.123-.048c.138-.031.274-.062.41-.091l.002.001a.372.372 0 0 1 .042.023.34.34 0 0 1 .052.03c.02.01.038.024.058.037.02.012.038.031.059.045.019.018.04.034.058.054.019.017.035.039.054.057.015.022.033.043.047.064.016.022.027.045.042.067.01.023.025.044.033.066a.654.654 0 0 1 .048.118.364.364 0 0 1 .015.046.338.338 0 0 0 .013.044l.048.002s.007-.015.016-.043a.17.17 0 0 0 .013-.052.269.269 0 0 0 .007-.074l.001-.041a1.257 1.257 0 0 0-.006-.044c-.003-.03-.013-.061-.022-.095-.012-.03-.024-.064-.043-.095-.017-.032-.04-.06-.061-.089-.025-.026-.05-.053-.078-.075-.027-.024-.058-.041-.086-.059a.552.552 0 0 0-.084-.036c1.93-.418 3.422-.7 3.422-.7 1.95 1.155 1.826 1.083 2.23 1.308.744.413.713 1.627-.69 1.627-1.057 0-3.013.18-4.206.412l1.053-.956-.034-.033s-1.04.755-2.277 1.373c-.67.272-1.68.71-2.723 1.174l1.537-1.455-.034-.036s-1.964 1.582-3.357 2.322a336.8 336.8 0 0 0-1.965.895c-.563.256-1.006.328-1.635.105-1.001-.355-1.39-.494-2.24-.817-.494-.187-.53-.884-.004-1.051.23-.075.83-.265 1.229-.392.174.076.353.156.532.233l.832.366.384.167.09.04.044.018.02.01h.004l.003.002.01.007a.68.68 0 0 1 .139.093.548.548 0 0 1 .198.457c-.002.063-.016.112-.024.147a.86.86 0 0 0-.016.05l.054.023.022-.054c.013-.036.032-.088.04-.16a.664.664 0 0 0-.018-.259.679.679 0 0 0-.175-.29.94.94 0 0 0-.15-.122l-.01-.005-.004-.004-.01-.006-.021-.012-.042-.023-.086-.05-.362-.207-.79-.451-1.601-.917-.006-.003s2.081-.654 4.734-1.383l.427.188.014-.028.007-.013-.25-.201-.657-.529-.325-.111-.217-.594-.294-.166-.289-1.324-.047.01.12 1.445-.824.462v-1.911l-.05-.006-.24 2.016-1.11.217.379-2.192-.05-.01-.68 2.24-1.09.073.79-2.339-.047-.019-1.162 2.381h-.002l-1.074.072 1.254-2.467-.04-.025-1.718 2.54-1.143.18 1.857-2.737-.036-.03-3.126 3.633-.168-.113 2.8-4.391 4.287-1.602.457-.198c.084-.037.17-.07.26-.119.048-.02.09-.048.134-.073.044-.026.086-.055.128-.084.082-.06.16-.125.23-.197l.052-.053.048-.055c.033-.036.061-.075.09-.112.029-.038.053-.078.078-.115l.067-.114.055-.112.045-.108a1.88 1.88 0 0 0 .06-.193c.018-.058.026-.112.035-.154l.015-.098.004-.035-.05-.009-.008.034-.022.096c-.012.04-.023.088-.045.143a1.687 1.687 0 0 1-.073.18l-.05.098-.06.103c-.025.033-.047.067-.073.1-.026.034-.051.07-.08.101-.03.034-.059.067-.092.098l-.049.047-.051.045a1.766 1.766 0 0 1-.346.23c-.043.018-.082.04-.124.056-.083.033-.173.063-.26.094-.17.06-.33.119-.468.167-.135.05-.248.089-.328.118l-.277-.556.559-.491-.026-.036-1.489.911-.35-.7 2.01-1.49-.032-.04-3.058 1.827-.277-.738 2.88-1.923-.025-.04-3.712 2.039-.176-.695 3.141-1.995-.022-.04-3.846 1.96-.11-.82v-.002l3.17-1.709-.019-.04-3.925 1.636-.019-.8 3.205-1.253-.017-.047-3.888 1.063.046-.875 2.957-.677-.01-.047-3.783.52.12-.756 2.784-.3v-.048l-3.888.064.058-.638 3.101-.021.003-.047-5.57-.407-.01-.053.903-.312v-.045l-2.309-.88.006-.05.923-.073.008-.048-1.992-1.23.011-.069 1.396.08.016-.044-1.606-1.507.02-.048.754.145.024-.038-.755-.949-.467-1.345.047-.024.722.91 1.633.939.035-.032-1.053-1.546L5.1 8.707l.05-.022L6 9.962l1.648 1.342.033-.033-1.01-1.831-.347-2.233.055-.013.984 1.903 2.068 1.717.04-.033-1.424-2.283-.32-2.74.046-.014.887 2.428 2.93 2.638 3.696 1.893 4.056 5.635 1.577 1.33.039-.036-.691-.9.004-.001.003-.001h-.007l1.624-.418-.002-.05-1.412-.083-.004-.047 2.072-.37-.006-.046-2.585-.196-.002-.05 3.296-.552 1.309.31.014-.046-1.248-.574-2.045.046-.005-.05 2.182-.411 1.352.463.019-.046-1.227-.778-1.45-.06-.001-.051 1.625-.252 1.42.666.026-.042-1.173-1.101-1.274-.005-.005-.053 1.553-.346 1.377 1.132.031-.033-1.057-1.548-1.155-.217.005-.048 1.459-.087 1.316 1.601.04-.027-.946-1.993-1.264-.412.01-.05 1.61.132 1.222 2.102.043-.02-.812-2.466-1.584-.565.01-.05 1.917.345 1.068 2.536.047-.014-.701-2.829-1.697-.962.022-.047 2.02.768.964 2.833.048-.01-.604-3.094-1.846-1.345.027-.043 2.15 1.178.842 2.98.05-.01-.529-3.19-1.935-1.718.03-.038 2.264 1.544.653 3.038.046-.01-.33-3.229-1.93-2.087.034-.04 2.235 1.914.492 2.941.05-.003-.216-3.092-1.827-2.386.035-.033 2.15 2.248.34 2.546.047-.005-.11-2.69-1.669-2.56.038-.03 1.934 2.45.257 1.828.05-.005-.09-1.956-1.188-2.652.042-.024 1.473 2.512.137 1.032.048-.005.07-1.175-.616-2.496.047-.017.846 2.094h.048l.521-2.092.052.012-.171 2.058.046.016 1.432-2.06.042.024-.93 1.86.033.035 2.188-1.563.027.04-3.338 4.501s-1.078 2.888-1.429 3.852a.638.638 0 0 1-.373.391l-2.705 1.081-.715.63-2.385.28.007.055zM20.5 0C9.178 0 0 9.178 0 20.5S9.178 41 20.5 41 41 31.822 41 20.5 31.821 0 20.5 0zm3.017 20.973.391.084-.12.381.04.023.579-.667-.023-.038-.867.17v.047zm1.612 1.677.195.048-.066.19.04.024.319-.346-.022-.04-.464.078-.002.046zm-3.116 6.466c.02.01.039.024.06.037.02.012.037.03.06.044.018.018.038.033.057.052l.014.014.042.043c.016.02.034.042.048.063.017.02.029.044.043.065.012.022.027.043.035.066a.6.6 0 0 1 .05.117.265.265 0 0 1 .017.046.72.72 0 0 0 .014.043h.048l.015-.041a.212.212 0 0 0 .012-.053.346.346 0 0 0 .006-.074v-.04l-.007-.045c-.004-.032-.015-.062-.025-.095-.013-.031-.026-.064-.045-.093a.385.385 0 0 0-.039-.058l-.024-.03c-.025-.027-.05-.053-.08-.074-.027-.024-.058-.04-.086-.057a.67.67 0 0 0-.09-.037l-.043-.012-.025-.003c-.005-.002-.011-.002-.017-.003a.248.248 0 0 0-.07-.004.21.21 0 0 0-.055.004c-.03.005-.047.01-.047.01l-.003.044v.003l.039.018c.013.005.027.014.044.021l.052.03zm1.86.747c-.048.016-.105.03-.168.05-.11.03-.24.068-.386.113a29.069 29.069 0 0 0-.57.172l-.21.071c-.281.097-.583.201-.882.306-.193.067-.382.14-.566.21l-.31.118-.273.106-.129.05c-.099.039-.193.079-.281.116l-.075.031c-.145.059-.274.114-.382.16-.055.024-.106.046-.15.063l-.2.087-.015.007.029.072.014-.005.207-.072.154-.056c.11-.038.242-.085.388-.139l.11-.041.252-.092.127-.044c.09-.032.183-.065.277-.1l.308-.112c.185-.07.376-.14.57-.206.298-.108.597-.214.878-.315.134-.048.272-.098.404-.142l.274-.094.09-.03c.146-.05.274-.095.383-.134.06-.02.113-.041.162-.057l.219-.081-.023-.075-.226.063zm-3.979.692.17-.056a25.987 25.987 0 0 0 .875-.293l.061-.02.265-.09c.112-.035.21-.07.291-.098.038-.015.075-.027.105-.038l.15-.054.014-.006-.022-.074-.014.003s-.057.012-.156.036l-.077.019c-.09.022-.202.049-.33.083l-.27.07c-.067.02-.136.04-.208.063l-.09.028c-.191.058-.409.128-.648.206-.177.059-.35.121-.519.181l-.122.044-.063.023c-.178.065-.347.127-.492.184l-.176.07-.044.019-.17.067-.145.062-.015.006.027.072s.07-.02.166-.05c.035-.01.073-.02.116-.035l.124-.037.16-.05c.102-.035.215-.07.336-.108l.228-.072.474-.155zm3.345-5.903-.002.046.25.062-.086.243.04.025.4-.432-.022-.04-.58.096zm-.425-.596.513-.765-.027-.035-.873.288.004.045.417.038-.077.412.043.017zm2.726-2.767-.586.051-.005.046.244.082-.104.236.038.027.431-.401-.018-.04zm-2.735 6.548-1.213-1.48-.061.026.31 1.763.639.74.033.017.044.02c.015.009.034.018.052.03.019.01.039.022.058.035.021.012.04.03.06.044.019.018.04.033.059.053.02.016.037.038.055.057.016.022.034.04.05.063.016.02.028.043.042.065.01.022.026.043.035.065.01.02.021.043.029.063.01.02.015.038.021.053.006.017.013.033.016.048a.434.434 0 0 0 .015.043h.047s.008-.015.016-.042a.296.296 0 0 0 .012-.054c.003-.02.007-.046.005-.072v-.043c-.003-.013-.004-.028-.006-.042-.005-.031-.016-.063-.025-.095-.013-.03-.025-.064-.045-.094-.017-.032-.041-.06-.064-.088a.555.555 0 0 0-.079-.073c-.027-.023-.058-.04-.087-.058-.031-.013-.06-.028-.09-.035a.716.716 0 0 0-.042-.013h-.004l.05-.012c.118-.03.236-.061.355-.09.005 0 .01.003.017.006a.357.357 0 0 1 .043.022.66.66 0 0 1 .11.065c.022.01.04.03.06.044.02.017.041.032.06.052.02.017.036.038.055.057.016.021.034.042.048.063.017.02.03.044.044.066.01.022.026.042.035.065.01.02.02.041.028.062.01.02.015.037.022.054a.617.617 0 0 1 .03.09h.049l.015-.042a.241.241 0 0 0 .012-.053c.003-.02.006-.047.005-.073v-.041l-.007-.045c-.004-.03-.015-.061-.024-.094-.014-.03-.026-.063-.046-.093-.016-.032-.04-.06-.063-.088-.025-.026-.05-.053-.08-.074-.026-.023-.057-.04-.086-.058-.031-.013-.06-.027-.09-.036l-.018-.005c.331-.083.666-.165 1-.243l-1.084-.603-.422.008zm2.023-7.841.302.13-.158.288.035.03.581-.45-.015-.042h-.735l-.01.044zm-10.66-6.711-1.374.702-.075-.407-.066.006-.006.676.052.026 1.503-.949-.033-.054zm1.316 1.66-1.923 1.042-.075-.407-.06.006-.012.676.053.03 2.051-1.293-.034-.053zm-.627-.85-1.818.962-.074-.407-.064.008-.009.675.05.026 1.948-1.21-.034-.055zm2.841 3.32-1.373.7-.076-.399-.06.009-.011.666.048.026 1.505-.948-.033-.055zm-.747-.818-1.658.863-.075-.408-.065.009-.008.672.049.03 1.792-1.111-.035-.055zm-.742-.8-1.883.982-.075-.407-.065.006-.007.677.054.026 2.009-1.231-.033-.053zm-4.46-1.04.02-.077L7.54 13.52 5.635 11.97l-.05.05 1.762 1.787 4.402.95zm.119-.862.026-.077-3.58-1.157L6.545 11l-.052.057 1.587 1.875 3.788.964zm11.443 5.798.302.132-.16.287.035.03.583-.449-.014-.042-.736-.004-.01.046zM7.537 15.615l1.56.455 3.083.283.01-.082-4.636-.732-.017.076zM7.94 10.3l-.057.045 1.295 1.783 3.131 1.04.03-.077-2.9-1.195L7.939 10.3zm10.383 7.973-.985.468-.074-.372-.063.002-.01.644.056.025 1.11-.714-.034-.053zm-6.516-2.826-5.858-1.208-.023.075 1.52.556 4.344.66.017-.083zm1.72-2.688.038-.074-2.71-1.301-1.65-2.196-.06.043 1.473 2.405 2.91 1.123zm11.447 16.839.078-.011a6.279 6.279 0 0 0 .492-.09c.088-.02.182-.04.276-.063l.059-.013a10.48 10.48 0 0 0 .6-.146c.053-.014.101-.029.142-.041l.057-.017.075-.024.013-.006-.015-.072h-.014s-.029.001-.079.008l-.06.007-.146.02a7.739 7.739 0 0 0-.29.048c-.105.018-.219.042-.33.065a9.38 9.38 0 0 0-.605.167c-.06.018-.11.036-.153.05l-.044.015-.075.026-.013.006.018.072.014-.001zm2.48-1.102s.036-.002.1-.012l.068-.008c.054-.007.12-.014.193-.026.237-.034.523-.08.788-.13l.066-.014c.12-.023.24-.046.35-.071l.166-.034a6 6 0 0 0 .2-.043c.071-.015.135-.03.187-.043l.07-.017c.061-.014.096-.025.096-.025l.014-.004-.013-.074h-.014l-.1.01-.062.006-.2.023-.022.003c-.104.014-.221.029-.347.05-.131.022-.273.048-.41.073l-.01.003c-.258.048-.544.108-.783.164-.068.017-.13.032-.18.046a1.533 1.533 0 0 1-.076.019l-.096.026-.014.004.015.075.014-.001zm-2.133-.227.053.03c.018.01.037.023.057.037.02.013.038.032.06.045.009.01.019.02.03.028.008.007.018.016.027.027.019.017.035.038.053.058.016.02.034.04.048.063.015.021.028.045.041.066.012.023.026.045.034.066a.69.69 0 0 1 .028.063l.02.055c.006.016.012.032.015.046.007.029.014.045.014.045l.047.002.017-.043a.244.244 0 0 0 .013-.053.291.291 0 0 0 .007-.073v-.042a.771.771 0 0 1-.005-.044c-.003-.03-.014-.061-.023-.094-.012-.03-.025-.064-.043-.094-.017-.034-.039-.061-.061-.09l-.016-.017a.606.606 0 0 0-.148-.117c-.03-.015-.06-.03-.09-.038l-.042-.014a.57.57 0 0 0-.034-.006l-.005-.001c-.027-.005-.051-.005-.073-.006a.215.215 0 0 0-.054.004c-.03.003-.047.007-.047.007l-.003.037-.002.011.04.02c.012.005.026.013.043.022zm2.266-7.112.011.04c.005.014.007.027.012.037l.018.03.016.026.017.019a.34.34 0 0 0 .035.03l.029-.02-.006-.04a.178.178 0 0 1-.003-.02l-.001-.024c0-.015 0-.032.002-.052.002-.019.008-.037.013-.056a.065.065 0 0 1 .011-.027c.006-.01.007-.02.013-.028.013-.018.023-.036.034-.046.005-.006.008-.011.022-.023l.017-.015.009-.006h.001c.02-.01.034-.025.055-.029.019-.01.039-.013.058-.018.011-.002.02 0 .03-.002a.074.074 0 0 1 .031-.001l.018.002c.02 0 .028.003.037.006a.23.23 0 0 1 .047.013l.02.007.02.011a.38.38 0 0 0 .036.022l.037-.031-.016-.04a.149.149 0 0 0-.01-.021l-.02-.025-.025-.028c-.009-.009-.02-.014-.032-.024l-.035-.024-.043-.017a.222.222 0 0 0-.049-.013c-.017-.003-.034-.006-.052-.007-.036.001-.074.003-.11.015-.038.009-.07.032-.105.05l-.01.01-.005.003-.008.008-.017.016c-.01.007-.023.025-.037.042-.029.035-.04.07-.054.103-.007.034-.016.069-.013.1 0 .016 0 .032.002.047zm.083-1.372.005.014.002.014.016.035a.254.254 0 0 0 .07.096c.008.01.018.018.028.025.016.014.033.023.05.032l.018.01c.045.017.09.027.13.027l.024-.002c.024-.002.048-.003.07-.013l.033-.01.009-.003.016-.008.009-.007a.313.313 0 0 0 .099-.087.265.265 0 0 0 .05-.107l.002-.013a.163.163 0 0 0 .006-.039l-.002-.042c-.002-.021-.008-.04-.013-.055l-.005-.017a.325.325 0 0 0-.03-.05l-.008-.011-.056.021v.01s-.004.021-.003.044a1.057 1.057 0 0 1-.012.047l-.01.024-.008.015-.008.013a.074.074 0 0 1-.008.01l-.01.01c-.003.007-.013.012-.021.019-.004.005-.008.007-.018.011l-.01.006-.002.001-.022.01a.171.171 0 0 1-.055.006h-.002a.17.17 0 0 1-.053-.012l-.015-.009-.01-.004a.072.072 0 0 0-.016-.014l-.006-.003a.034.034 0 0 0-.009-.01c-.003-.003-.005-.006-.01-.016l-.014-.021-.001-.005v-.003a.092.092 0 0 1-.01-.031.063.063 0 0 1-.004-.024l-.001-.008.001-.02.002-.013c0-.005 0-.01.003-.014l.005-.015a.052.052 0 0 0 .002-.011l.012-.024c.005-.007.009-.013.012-.02.005-.005.008-.011.008-.012.026-.021.038-.035.038-.035l.009-.01-.033-.065-.013.002s-.018.002-.055.01l-.013.006a.224.224 0 0 0-.053.031c-.01.01-.022.018-.033.029a.118.118 0 0 0-.021.025.26.26 0 0 0-.056.122.219.219 0 0 0-.008.066c-.002.021.003.042.006.062l.002.01zm1.667 1.047c.01.01.017.02.025.031l.023.033a.408.408 0 0 1 .037.07.404.404 0 0 1 .04.155c.002.014.001.027.002.04l-.002.042a.514.514 0 0 1-.031.116l-.019.04.04.022.024-.037c.007-.014.015-.029.02-.043a.552.552 0 0 0 .028-.09l.008-.045c.001-.015.003-.031.003-.047a.509.509 0 0 0-.026-.184.573.573 0 0 0-.035-.09c-.007-.013-.014-.028-.022-.04-.009-.014-.016-.028-.026-.041a.663.663 0 0 0-.06-.075l-.002-.004c-.19-.18-.382-.356-.57-.538l-.138.164c.212.154.419.312.629.467a.634.634 0 0 1 .052.054zm-10.184-.037-.02-.15-.059-.004-.065.391.052.031.728-.509-.034-.052-.602.293zm-.276-1.717-.696.306-.062-.282h-.06l-.026.537.049.027.826-.538-.03-.05zm.437 2.528-.014-.147-.06-.005-.065.39.045.035.531-.385-.032-.052-.405.164zm.343-1.914-.849.376-.028-.24-.06-.005-.057.49.048.035.98-.6-.035-.056zm9.547 8.968-.296.044a7.644 7.644 0 0 0-.447.081l-.106.02-.108.021c-.046.009-.089.019-.13.026-.096.019-.18.037-.252.054a2.22 2.22 0 0 0-.105.021l-.15.035.013.075.152-.017.11-.014c.072-.008.157-.018.252-.032l.24-.034.065-.008.204-.03c.114-.019.23-.034.353-.052l.23-.03.232-.036.064-.01.286-.044c.125-.019.243-.037.353-.056l.154-.025c.086-.013.162-.027.229-.038l.13-.024.151-.026-.01-.077-.014.002s-.05.001-.138.008l-.044.002a6.08 6.08 0 0 0-.32.029c-.054.005-.112.01-.173.017-.108.01-.22.021-.34.036l-.287.038-.298.044zm-12.57-3.333-.01.045.184.08-.097.176.035.03.373-.288-.015-.043h-.47zm.889 7.557-.666-.294.646-.34-.018-.043-.975.27a.125.125 0 0 0-.086.083.126.126 0 0 0 .081.16l.012.003.949.305c.159.049.317.105.475.159l.475.163.017-.045-.454-.212c-.152-.07-.302-.142-.457-.209zm.434-7.557-.009.045.184.08-.097.176.035.03.373-.288-.015-.043h-.471z" fill="#EC1A2E"/>
<script xmlns="" id="bw-fido2-page-script"/></svg>